<svg width="2180" height="342" viewBox="0 0 2180 342" fill="none" xmlns="http://www.w3.org/2000/svg">
<path d="M544.64 291C528.459 291 513.937 287.154 501.075 279.462C488.422 271.77 478.36 261.378 470.892 248.281C463.633 235.183 460 220.424 460 204.002C460 187.369 463.424 172.506 470.271 159.408C477.116 146.314 486.554 136.024 498.586 128.538C510.618 120.846 524.414 117 539.975 117C553.252 117 565.385 119.601 576.382 124.797C587.375 129.786 596.918 137.479 605.01 147.873C606.67 149.95 607.29 152.132 606.875 154.419C606.46 156.706 605.115 158.579 602.831 160.034C600.966 161.489 598.891 162.111 596.607 161.905C594.327 161.489 592.354 160.24 590.694 158.163C577.417 142.363 560.511 134.465 539.975 134.465C527.734 134.465 516.946 137.479 507.613 143.506C498.485 149.534 491.327 157.747 486.139 168.142C481.16 178.534 478.671 190.488 478.671 204.002C478.671 217.096 481.474 228.945 487.073 239.55C492.676 249.941 500.35 258.259 510.102 264.494C520.06 270.525 531.572 273.539 544.64 273.539C553.147 273.539 561.135 272.291 568.603 269.798C576.277 267.301 582.916 263.455 588.519 258.259C590.384 256.595 592.458 255.661 594.742 255.452C597.022 255.245 598.992 255.973 600.652 257.634C602.726 259.504 603.765 261.689 603.765 264.182C603.971 266.469 603.141 268.444 601.276 270.109C586.13 284.035 567.254 291 544.64 291Z" fill="white"/>
<path d="M745.431 291C729.084 291 714.494 287.354 701.664 280.065C689.039 272.569 679.106 262.26 671.865 249.139C664.621 236.018 661 221.027 661 204.158C661 187.078 664.415 172.083 671.243 159.172C678.073 146.051 687.488 135.743 699.491 128.247C711.493 120.751 725.255 117 740.777 117C756.091 117 769.644 120.646 781.438 127.935C793.235 135.014 802.445 144.906 809.067 157.61C815.689 170.108 819 184.581 819 201.033C819 203.741 818.172 205.926 816.517 207.594C814.861 209.051 812.688 209.779 809.996 209.779H679.934C680.557 222.274 683.763 233.314 689.558 242.894C695.352 252.474 703.01 259.97 712.529 265.385C722.254 270.8 733.223 273.508 745.431 273.508C753.503 273.508 761.572 272.152 769.644 269.444C777.922 266.53 784.44 262.782 789.201 258.201C790.856 256.533 792.822 255.7 795.096 255.7C797.579 255.493 799.649 256.117 801.304 257.574C803.582 259.448 804.72 261.532 804.72 263.823C804.928 266.113 803.996 268.194 801.927 270.071C795.305 276.11 786.613 281.108 775.853 285.063C765.297 289.021 755.159 291 745.431 291ZM740.777 134.496C730.017 134.496 720.289 136.993 711.597 141.992C702.906 146.99 695.766 153.967 690.18 162.92C684.8 171.67 681.489 181.873 680.247 193.534H800.995C799.548 176.041 793.34 161.88 782.37 151.05C771.404 140.013 757.538 134.496 740.777 134.496Z" fill="white"/>
<path d="M884.354 290C881.65 290 879.366 289.165 877.494 287.496C875.831 285.619 875 283.325 875 280.613V128.263C875 125.342 875.831 123.047 877.494 121.381C879.366 119.712 881.65 118.877 884.354 118.877C887.263 118.877 889.547 119.712 891.21 121.381C892.872 123.047 893.704 125.342 893.704 128.263V147.658C899.732 138.064 907.315 130.558 916.459 125.135C925.812 119.712 936.098 117 947.321 117C955.218 117 961.348 117.94 965.713 119.817C970.076 121.693 971.738 125.029 970.701 129.828C970.076 132.957 968.623 134.833 966.335 135.458C964.051 136.082 961.246 136.188 957.921 135.77C954.802 135.146 951.271 134.833 947.321 134.833C936.93 134.833 927.681 137.022 919.578 141.404C911.471 145.781 905.135 151.829 900.563 159.546C895.991 167.056 893.704 175.71 893.704 185.51V280.613C893.704 283.325 892.872 285.619 891.21 287.496C889.547 289.165 887.263 290 884.354 290Z" fill="white"/>
<path d="M1090.43 291C1074.09 291 1059.5 287.354 1046.67 280.065C1034.04 272.569 1024.11 262.26 1016.87 249.139C1009.62 236.018 1006 221.027 1006 204.158C1006 187.078 1009.42 172.083 1016.24 159.172C1023.07 146.051 1032.49 135.743 1044.49 128.247C1056.49 120.751 1070.26 117 1085.78 117C1101.09 117 1114.65 120.646 1126.44 127.935C1138.24 135.014 1147.44 144.906 1154.07 157.61C1160.69 170.108 1164 184.581 1164 201.033C1164 203.741 1163.17 205.926 1161.52 207.594C1159.86 209.051 1157.69 209.779 1155 209.779H1024.93C1025.56 222.274 1028.76 233.314 1034.56 242.894C1040.35 252.474 1048.01 259.97 1057.53 265.385C1067.26 270.8 1078.22 273.508 1090.43 273.508C1098.51 273.508 1106.57 272.152 1114.65 269.444C1122.92 266.53 1129.44 262.782 1134.2 258.201C1135.86 256.533 1137.82 255.7 1140.1 255.7C1142.58 255.493 1144.65 256.117 1146.31 257.574C1148.59 259.448 1149.72 261.532 1149.72 263.823C1149.93 266.113 1149 268.194 1146.93 270.071C1140.31 276.11 1131.62 281.108 1120.85 285.063C1110.3 289.021 1100.16 291 1090.43 291ZM1085.78 134.496C1075.01 134.496 1065.29 136.993 1056.6 141.992C1047.91 146.99 1040.77 153.967 1035.18 162.92C1029.8 171.67 1026.49 181.873 1025.25 193.534H1146C1144.55 176.041 1138.34 161.88 1127.37 151.05C1116.4 140.013 1102.54 134.496 1085.78 134.496Z" fill="white"/>
<path d="M1305.84 291C1289.66 291 1275.03 287.28 1261.95 279.837C1248.88 272.398 1238.51 262.271 1230.83 249.454C1223.36 236.64 1219.42 222.171 1219 206.051V56.3027C1219 53.407 1219.83 51.1334 1221.49 49.4821C1223.36 47.8274 1225.64 47 1228.34 47C1231.24 47 1233.53 47.8274 1235.19 49.4821C1236.85 51.1334 1237.68 53.407 1237.68 56.3027V153.033C1244.32 142.284 1253.55 133.708 1265.38 127.301C1277.41 120.894 1290.9 117.689 1305.84 117.689C1322.45 117.689 1337.28 121.513 1350.36 129.161C1363.64 136.6 1374.01 146.831 1381.48 159.854C1389.16 172.876 1393 187.654 1393 204.191C1393 220.725 1389.16 235.607 1381.48 248.835C1374.01 261.857 1363.64 272.193 1350.36 279.837C1337.28 287.28 1322.45 291 1305.84 291ZM1305.84 273.639C1318.92 273.639 1330.54 270.642 1340.71 264.646C1351.08 258.447 1359.28 250.177 1365.3 239.845C1371.31 229.301 1374.32 217.419 1374.32 204.191C1374.32 190.96 1371.31 179.179 1365.3 168.847C1359.28 158.512 1351.08 150.346 1340.71 144.352C1330.54 138.151 1318.92 135.05 1305.84 135.05C1292.98 135.05 1281.36 138.151 1270.98 144.352C1260.61 150.346 1252.41 158.512 1246.39 168.847C1240.58 179.179 1237.68 190.96 1237.68 204.191C1237.68 217.419 1240.58 229.301 1246.39 239.845C1252.41 250.177 1260.61 258.447 1270.98 264.646C1281.36 270.642 1292.98 273.639 1305.84 273.639Z" fill="white"/>
<path d="M1465.26 290C1462.58 290 1460.32 289.165 1458.47 287.496C1456.82 285.619 1456 283.325 1456 280.613V128.263C1456 125.342 1456.82 123.047 1458.47 121.381C1460.32 119.712 1462.58 118.877 1465.26 118.877C1468.14 118.877 1470.4 119.712 1472.04 121.381C1473.69 123.047 1474.51 125.342 1474.51 128.263V147.658C1480.47 138.064 1487.98 130.558 1497.03 125.135C1506.28 119.712 1516.46 117 1527.57 117C1535.38 117 1541.45 117.94 1545.77 119.817C1550.09 121.693 1551.73 125.029 1550.7 129.828C1550.09 132.957 1548.65 134.833 1546.39 135.458C1544.12 136.082 1541.35 136.188 1538.06 135.77C1534.97 135.146 1531.48 134.833 1527.57 134.833C1517.28 134.833 1508.13 137.022 1500.11 141.404C1492.09 145.781 1485.82 151.829 1481.3 159.546C1476.77 167.056 1474.51 175.71 1474.51 185.51V280.613C1474.51 283.325 1473.69 285.619 1472.04 287.496C1470.4 289.165 1468.14 290 1465.26 290Z" fill="white"/>
<path d="M1624 290C1621.11 290 1618.67 289.166 1616.67 287.497C1614.89 285.622 1614 283.33 1614 280.62V128.38C1614 125.46 1614.89 123.168 1616.67 121.503C1618.67 119.834 1621.11 119 1624 119C1627.11 119 1629.56 119.834 1631.33 121.503C1633.11 123.168 1634 125.46 1634 128.38V280.62C1634 283.33 1633.11 285.622 1631.33 287.497C1629.56 289.166 1627.11 290 1624 290Z" fill="white"/>
<path d="M1786.47 291C1771.58 291 1758.24 287.999 1746.46 281.998C1734.67 275.787 1725.26 266.785 1718.23 254.987C1711.41 243.189 1708 228.804 1708 211.83V128.316C1708 125.625 1708.83 123.452 1710.48 121.795C1712.34 119.933 1714.62 119 1717.3 119C1719.99 119 1722.16 119.933 1723.81 121.795C1725.68 123.452 1726.61 125.625 1726.61 128.316V211.83C1726.61 225.285 1729.19 236.564 1734.36 245.671C1739.74 254.573 1746.87 261.298 1755.76 265.852C1764.86 270.2 1775.09 272.372 1786.47 272.372C1797.63 272.372 1807.66 270.2 1816.55 265.852C1825.44 261.507 1832.47 255.711 1837.64 248.466C1842.81 241.017 1845.39 232.634 1845.39 223.318V128.316C1845.39 125.416 1846.22 123.139 1847.87 121.486C1849.74 119.829 1852.01 119 1854.7 119C1857.59 119 1859.86 119.829 1861.52 121.486C1863.17 123.139 1864 125.416 1864 128.316V279.512C1864 282.203 1863.17 284.48 1861.52 286.342C1859.86 287.999 1857.59 288.828 1854.7 288.828C1852.01 288.828 1849.74 287.999 1847.87 286.342C1846.22 284.48 1845.39 282.203 1845.39 279.512V263.37C1838.57 271.857 1829.99 278.582 1819.65 283.55C1809.52 288.518 1798.46 291 1786.47 291Z" fill="white"/>
<path d="M1945.35 290C1942.65 290 1940.36 289.167 1938.49 287.5C1936.83 285.627 1936 283.337 1936 280.63V128.555C1936 125.638 1936.83 123.348 1938.49 121.685C1940.36 120.018 1942.65 119.185 1945.35 119.185C1948.26 119.185 1950.54 120.018 1952.2 121.685C1953.87 123.348 1954.7 125.638 1954.7 128.555V140.733C1960.51 133.24 1967.58 127.41 1975.89 123.247C1984.41 119.083 1993.65 117 2003.62 117C2015.88 117 2026.79 120.018 2036.34 126.055C2045.9 131.885 2053.38 140.005 2058.78 150.414C2064.39 140.005 2072.18 131.885 2082.15 126.055C2092.12 120.018 2103.34 117 2115.81 117C2128.48 117 2139.59 120.123 2149.15 126.366C2158.71 132.613 2166.18 141.255 2171.59 152.288C2177.2 163.321 2180 176.021 2180 190.384V280.63C2180 283.337 2179.17 285.627 2177.51 287.5C2175.85 289.167 2173.56 290 2170.65 290C2167.95 290 2165.67 289.167 2163.8 287.5C2162.13 285.627 2161.3 283.337 2161.3 280.63V190.384C2161.3 174.354 2157.04 161.237 2148.53 151.038C2140.22 140.838 2129.31 135.736 2115.81 135.736C2101.47 135.736 2089.73 140.526 2080.59 150.099C2071.66 159.469 2067.4 172.169 2067.82 188.199C2067.82 188.822 2067.82 189.55 2067.82 190.384V280.63C2067.82 283.337 2066.99 285.627 2065.32 287.5C2063.66 289.167 2061.38 290 2058.47 290C2055.77 290 2053.48 289.167 2051.61 287.5C2049.95 285.627 2049.12 283.337 2049.12 280.63V190.384C2049.12 174.354 2044.86 161.237 2036.34 151.038C2028.03 140.838 2017.13 135.736 2003.62 135.736C1989.29 135.736 1977.55 140.316 1968.41 149.476C1959.27 158.636 1954.7 170.502 1954.7 185.075V280.63C1954.7 283.337 1953.87 285.627 1952.2 287.5C1950.54 289.167 1948.26 290 1945.35 290Z" fill="white"/>
<path d="M1613.05 71.9475C1615.96 74.6503 1619.39 76 1623.34 76C1627.5 76 1630.93 74.6503 1633.64 71.9475C1636.55 69.035 1638 65.5001 1638 61.3427C1638 56.5629 1636.44 53.028 1633.32 50.7413C1630.41 48.2482 1627.19 47 1623.66 47C1619.92 47 1616.48 48.2482 1613.36 50.7413C1610.45 53.028 1609 56.5629 1609 61.3427C1609 65.5001 1610.35 69.035 1613.05 71.9475Z" fill="#EB3A6F"/>
<path d="M316.545 282H109.455C92.6343 282 79 295.43 79 311.998C79 328.57 92.6343 342 109.455 342H316.545C333.362 342 347 328.57 347 311.998C347 295.43 333.362 282 316.545 282Z" fill="#EB3A6F"/>
<path d="M316.545 0H109.455C92.6343 0 79 13.4318 79 30.0007C79 46.5696 92.6343 60 109.455 60H316.545C333.362 60 347 46.5696 347 30.0007C347 13.4318 333.362 0 316.545 0Z" fill="#EB3A6F"/>
<path d="M154.835 140H30.1628C13.5045 140 0 153.431 0 169.998C0 186.569 13.5045 200 30.1628 200H154.835C171.494 200 185 186.569 185 169.998C185 153.431 171.494 140 154.835 140Z" fill="#EB3A6F"/>
<path d="M256.002 200C272.569 200 286 186.569 286 169.998C286 153.431 272.569 140 256.002 140C239.431 140 226 153.431 226 169.998C226 186.569 239.431 200 256.002 200Z" fill="#EB3A6F"/>
</svg>
